<svg width="39" height="39" viewBox="0 0 39 39" fill="none" xmlns="http://www.w3.org/2000/svg">
<path d="M6.9617 22.2693C6.8119 22.1172 6.69351 21.9372 6.61329 21.7394C6.53307 21.5416 6.4926 21.3299 6.49419 21.1165C6.49739 20.6854 6.67169 20.2733 6.97876 19.9707C7.28584 19.6682 7.70052 19.5 8.13158 19.5032C8.56264 19.5064 8.97478 19.6807 9.27733 19.9878L17.8752 28.714V6.50028C17.8752 6.06931 18.0464 5.65598 18.3512 5.35123C18.6559 5.04649 19.0692 4.87528 19.5002 4.87528C19.9312 4.87528 20.3445 5.04649 20.6493 5.35123C20.954 5.65598 21.1252 6.06931 21.1252 6.50028V28.7043L29.7133 19.9878C29.8631 19.8357 30.0414 19.7147 30.238 19.6315C30.4346 19.5484 30.6456 19.5048 30.8591 19.5032C31.0725 19.5016 31.2842 19.5421 31.482 19.6223C31.6798 19.7025 31.8598 19.8209 32.0119 19.9707C32.1639 20.1205 32.285 20.2988 32.3681 20.4954C32.4513 20.692 32.4949 20.903 32.4965 21.1165C32.4981 21.3299 32.4576 21.5416 32.3774 21.7394C32.2971 21.9372 32.1788 22.1172 32.029 22.2693L20.9416 33.5208C20.7526 33.7124 20.5274 33.8646 20.2792 33.9684C20.0309 34.0723 19.7644 34.1257 19.4953 34.1257C19.2262 34.1257 18.9598 34.0723 18.7115 33.9684C18.4632 33.8646 18.2381 33.7124 18.0491 33.5208L6.9617 22.2693Z" fill="#1B1D2D"/>
</svg>
