<svg width="39" height="39" viewBox="0 0 39 39" fill="none" xmlns="http://www.w3.org/2000/svg">
<path d="M6.9617 16.7307C6.8119 16.8828 6.69351 17.0628 6.61329 17.2606C6.53307 17.4584 6.4926 17.6701 6.49419 17.8835C6.49739 18.3146 6.67169 18.7267 6.97876 19.0293C7.28584 19.3318 7.70052 19.5 8.13158 19.4968C8.56264 19.4936 8.97478 19.3193 9.27733 19.0122L17.8752 10.286V32.4997C17.8752 32.9307 18.0464 33.344 18.3512 33.6488C18.6559 33.9535 19.0692 34.1247 19.5002 34.1247C19.9312 34.1247 20.3445 33.9535 20.6493 33.6488C20.954 33.344 21.1252 32.9307 21.1252 32.4997V10.2957L29.7133 19.0122C29.8631 19.1643 30.0414 19.2853 30.238 19.3685C30.4346 19.4516 30.6456 19.4952 30.8591 19.4968C31.0725 19.4984 31.2842 19.4579 31.482 19.3777C31.6798 19.2975 31.8598 19.1791 32.0119 19.0293C32.1639 18.8795 32.285 18.7012 32.3681 18.5046C32.4513 18.308 32.4949 18.097 32.4965 17.8835C32.4981 17.6701 32.4576 17.4584 32.3774 17.2606C32.2971 17.0628 32.1788 16.8828 32.029 16.7307L20.9416 5.47922C20.7526 5.2876 20.5274 5.13545 20.2792 5.0316C20.0309 4.92775 19.7644 4.87427 19.4953 4.87427C19.2262 4.87427 18.9598 4.92775 18.7115 5.0316C18.4632 5.13545 18.2381 5.2876 18.0491 5.47922L6.9617 16.7307Z" fill="#1B1D2D"/>
</svg>
